<svg height="42" viewBox="0 0 108.69 42" width="108.69" xmlns="http://www.w3.org/2000/svg"><g fill="#040303"><circle cx="107.02" cy="13.33" r="1.66"/><path d="m87.1 22.76 3-3.66a1.57 1.57 0 0 0 -2.42-2l-3.88 4.67a1.57 1.57 0 0 0 0 2l4.33 5.12a1.56 1.56 0 0 0 1.2.56 1.54 1.54 0 0 0 1-.37 1.57 1.57 0 0 0 .19-2.22z"/><path d="m71.8 16.24a6.6 6.6 0 1 0 6.59 6.6 6.6 6.6 0 0 0 -6.59-6.6zm0 10a3.45 3.45 0 1 1 3.45-3.44 3.45 3.45 0 0 1 -3.45 3.48z"/><path d="m81.91 11.74a1.57 1.57 0 0 0 -1.58 1.57v14.59a1.58 1.58 0 1 0 3.15 0v-14.59a1.57 1.57 0 0 0 -1.57-1.57z"/><path d="m107 16.52a1.57 1.57 0 0 0 -1.57 1.58v9.75a1.57 1.57 0 1 0 3.14 0v-9.75a1.57 1.57 0 0 0 -1.57-1.58z"/><path d="m56.9 16.24a6.58 6.58 0 0 0 -3.46 1v-3.96a1.57 1.57 0 1 0 -3.14 0v9.6a6.6 6.6 0 1 0 6.6-6.64zm0 10a3.45 3.45 0 1 1 3.44-3.44 3.44 3.44 0 0 1 -3.44 3.48z"/><path d="m100.64 22c-2.02-.68-4.64-1-4.64-2.31 0-.61.62-1.1 1.68-1.1a5.63 5.63 0 0 1 2.6.69 2.55 2.55 0 0 0 .58.19 1.65 1.65 0 0 0 .31 0 1.3 1.3 0 0 0 1.3-1.3 1.28 1.28 0 0 0 -.53-1l-.07-.05a7.64 7.64 0 0 0 -4.26-1.19c-2.77 0-4.76 1.5-4.76 3.95 0 2.83 2.54 3.58 4.55 4.09 1.36.38 2.64.52 2.64 1.59 0 .78-.65 1.21-1.89 1.21a5.35 5.35 0 0 1 -3.15-.87 1.61 1.61 0 0 0 -.77-.32h-.23a1.31 1.31 0 0 0 -1 2.16.39.39 0 0 0 .08.1l.08.07a6.9 6.9 0 0 0 4.66 1.62c3.2 0 5.25-1.62 5.25-4.15a3.51 3.51 0 0 0 -2.43-3.38z"/></g><path d="m21 0a21 21 0 1 0 21 21 21 21 0 0 0 -21-21zm18.38 21a18.38 18.38 0 1 1 -18.38-18.38 18.39 18.39 0 0 1 18.38 18.38z" fill="#201600"/><path d="m27.11 14.86a8 8 0 0 0 -7.76-6.25h-.3a8.07 8.07 0 0 0 -7.64 8.14v11.86a1.89 1.89 0 0 0 .59 1.39 1.87 1.87 0 0 0 1.36.58h11.83a8.07 8.07 0 0 0 8.13-7.62 8 8 0 0 0 -6.21-8.1zm-13 13a11.27 11.27 0 0 1 10.47-10.48 11.3 11.3 0 0 1 -10.43 10.43zm1.47-14.86a5.11 5.11 0 0 1 3.57-1.66h.2a5.27 5.27 0 0 1 4.93 3.43 13.88 13.88 0 0 0 -10.19 5.72v-3.74a5.55 5.55 0 0 1 1.49-3.75zm13.42 13.39a5.57 5.57 0 0 1 -3.79 1.49h-3.7a14 14 0 0 0 5.74-10.18 5.24 5.24 0 0 1 3.39 5.13 5.12 5.12 0 0 1 -1.64 3.56z"/></svg>